<svg id="Graphic_Elements" data-name="Graphic Elements" xmlns="http://www.w3.org/2000/svg" xmlns:xlink="http://www.w3.org/1999/xlink" viewBox="0 0 1200 1200"><defs><style>.cls-1{fill:#ff0;}.cls-2,.cls-3{fill-rule:evenodd;}.cls-2{fill:url(#radial-gradient);}.cls-3{fill:#ff8c00;}</style><radialGradient id="radial-gradient" cx="62.71" cy="-72.02" r="241.85" gradientTransform="matrix(2.27, 0, 0, -2.25, 457.4, 438.13)" gradientUnits="userSpaceOnUse"><stop offset="0" stop-color="#ff0"/><stop offset="0.81" stop-color="#ff0"/><stop offset="1" stop-color="#ff0" stop-opacity="0"/></radialGradient></defs><ellipse class="cls-1" cx="586.23" cy="615.9" rx="262.62" ry="267.09"/><path class="cls-2" d="M621.53,56.48a15,15,0,0,0-1.87.22,7.37,7.37,0,0,0-4.37,4.37C605.76,150,605,255.46,589.07,342.25c-8-11-6.69-25.85-7.29-39.33-1.49-33.89-3.89-73.76-2.91-102,1.65-47.45-6.51-97.17-1.46-141.32-20.38-2.61-17.29,24.5-16,35s6.94,19.32,7.29,30.59c1.44,46.56,3.18,92.65,1.45,138.41-1,26.55,5.81,54.44-5.83,75.76-3.31-24.07-12.51-55.53-5.83-80.13-2.42-2.92-5.28-5.39-5.82-10.2-5.46-31.42-5.76-69.13-8.74-104.9-1.71-20.48-6.91-38.92-5.83-55.36.74-11.34,10.13-31.17-10.2-30.59-1.45,52,10.72,113.05,16,174.82,1.91,22.19,4.62,45.23,5.83,67,.89,16.21,2,36.66-3.16,52.1a258,258,0,0,1,39.63-3.27q9.06.15,18.08.92c10.13-104.85,4.59-207.81,25.55-290.1l0,0c-2.13-1.69-4.27-3.37-8.34-3.14Zm-114,4.59c-14.73-1-11.29,15.05-10.2,24.77,4.93,44,16.51,101.16,18.94,144.23,8.77,27.29,12.37,70.22,8.74,106.35-12.22-16.74-9.87-38.87-14.57-59.73-9.53-42.32-20-86.48-27.68-131.12-2.55-14.84-8.92-30.06-10.2-45.16-1.21-14.24.49-24.54-10.2-29.14-6.19,7.79,1.07,15.5,2.92,23.31,5.28,22.34,7.77,49.55,11.65,72.84C483.5,206.91,495.23,244,498.75,284c8.45,19.59,17,53.45,13.12,75.75-13.19-6.16-12.6-22.82-16-35C477.06,258.13,452.26,184.78,439,115c-2-10.74,1.83-23.11-7.28-32.06-15.55.64-9.47,13-7.29,20.4,14.47,48.94,26.61,97.37,40.8,145.69,5.69,19.41,13.31,40.53,16,58.27,3.48,22.78,15.06,38.73,8.74,58.27-7.4-19.68-16.76-38.7-23.31-55.35-18.54-47.1-37.88-101.72-52.45-153-4.19-14.77-11.53-27.78-14.57-42.25-1.33-6.34,2.81-14.7-4.37-18.94-17.25,2.55-1.08,18-2.91,30.6,29.73,73.71,54.22,160.43,78.68,234.56-9.89-3.72-10.25-17-13.12-27.68-21.17-33-35.58-72.65-53.9-110.73C389.73,193,376.89,160.91,366.18,131c-2.33-6.5,1-15.58-10.2-17.48-10.9,10.71,5.57,27.17,5.83,40.79a86,86,0,0,1,13.11,23.31c23.33,61.16,58.49,121.93,74.3,186.48-13.25-24.63-33.33-42.42-40.79-72.84C391.08,269.41,377.6,244,361.81,217c-11.95-20.51-27.27-43.17-35-62.65-2.67-6.78.86-17.1-10.19-18.94-14.62,5.4-2.49,14.13,1.46,20.39,4.65,7.4,8.17,18.3,11.65,24.77,8.23,15.31,20.44,30.35,29.14,45.17,9.08,15.47,14.23,34.41,23.31,51,12.7,23.19,28,42.23,35,67,10.41,11,23.91,26.49,23.3,43.71-17.13-13.6-25.7-34.89-37.87-52.44-37.77-54.48-74.22-109.48-107.81-167.55-1.67-5.14-1.12-12.48-5.83-14.56-24.61,6.8,9.66,42.54,17.48,55.35,20.93,34.3,40.05,61.22,61.19,91.79,11.65,16.85,20.13,33.21,29.14,48.07,8.17,13.49,24.45,28.52,23.31,43.71-28.36-17.78-40.27-52-67-71.39C329.43,281.87,296,253.19,272.94,214,256,207,259.83,172,235.06,177.62c31.17,59.16,77.25,103.4,115.1,155.88-1.06,4.46,2.51,4.29,1.45,8.75,16.71,6.91,23.36,24,33.51,36.42,7.85,9.6,24,16.76,20.4,30.59-20.32-7.54-33.27-26.93-48.08-43.7-28.44-32.17-62.74-62.9-91.82-93.25-15.16-15.82-34.31-31.39-45.17-48.08-6.15-9.45-5.85-21.09-16-21.85-24.63-1.84-1.52,22,4.37,27.68,38.55,37,70.22,71.69,104.9,109.27,17.67,19.15,40.71,34.95,51,59.73,11.64,2.94,21.56,15.34,21.85,24.77C347.85,388.74,307,358.52,270,323.31c-19.8-18.82-42-33.93-61.19-52.45-8.89-8.57-13.37-23.34-29.14-23.31-9.66,14.18,8.59,19.12,16,24.76,19.5,14.8,32.68,34.49,49.53,48.08,11.76,9.49,24.33,17.39,35,27.69,10.39,10.06,19.81,21.62,30.59,32.05,22.77,22,54.11,36.12,65.56,62.64-56-36.66-113-82.84-167.54-119.46-8.54-5.74-18.43-10.15-26.22-16-9.59-7.23-15.13-27.63-32.05-20.4,5.9,20.14,29,28.42,45.16,39.33,38.89,26.3,77.62,52.2,112.18,81.59,19.15,16.28,38.08,33.73,51,52.44-39.56-21.72-76.86-47-115.09-69.93-29.17-17.5-60.7-33.62-87.41-52.45-8.86-6.24-16.14-18.76-29.15-17.48-10.21,14.34,8.86,17.9,17.49,23.31,7.11,4.46,12.43,11.87,17.48,14.57,7.87,4.2,15.75,6,23.31,10.2,15.08,8.36,32.52,18.51,48.08,27.68,21,12.37,41.88,26.68,62.65,39.33,21.06,12.84,47.23,22.95,56.82,45.17-16.38,2.46-26.78-11.84-39.34-18.94-50-28.3-108.56-50.66-155.89-80.13-14.67-9.13-28.64-28.06-48.08-24.77,1.13,10.21,12.76,14.05,20.4,18.94,21.32,13.65,43.58,27.17,68.48,36.43,36.59,25,82.72,47.48,118,71.38,7.69,5.22,18.73,9,21.85,17.49-9.71,3.09-13.44-5.43-20.4-8.74-8.85-4.22-20-5.6-29.13-10.2-46-23.21-98.54-43.61-141.32-68.48-23.34.05-35.6-31.07-56.83-18.94,4.57,12.78,19.51,16.51,30.6,21.86,11.42,5.51,22.08,13.49,33.51,18.93C174,444.6,196.07,449,214.63,458.8c10.19,5.35,18.75,12.64,29.14,17.48,29.38,13.69,60.94,25.72,86,43.7-69.8-24.91-141.29-48.11-206.88-77.21h-10.2c-9.89-5-18.27-16.6-32.05-13.11-3.95,18.84,17.89,23.63,35,26.22,61.56,25.37,129.93,43.94,185,75.77,11.1-.42,20.07,1.28,23.31,8.73-10.11,4.44-17.91-4.92-26.23-7.28-7.42-2.11-15.51-.65-23.31-2.91-6.58-1.91-12.43-7-18.94-8.75-43.65-11.64-88-22.62-134-32.05-13.13-8.31-35.5-14.9-51-16,3.18,12.39,20.07,16.16,30.6,20.4,24.44,9.86,53,11.63,80.12,20.4,19.39,6.26,38,16.62,56.82,21.85,13.84,3.86,27.94,6,40.79,10.2,12.44,4,28.44,4.34,36.42,16C250.68,552,182.75,535.9,121.39,522.9c-20-4.24-38.58-13.79-58.28-14.57-.1,16.41,23.21,17.89,36.43,21.86,14.47,4.34,32.31,9.95,48.07,13.11,10.42,2.08,21.95.43,32.06,2.91,7.4,1.81,13.18,7.63,20.39,8.74,43.21,6.66,80.16,13,112.19,26.22-60.95-1.49-119.13-12.77-180.66-16-13.08-9.1-36.93-4.91-55.36-8.74-8.49-1.77-15.8-9.16-21.86-2.91C48.39,572.6,68.43,569,80.6,571c8.3,1.38,16.33,5.12,26.22,5.82,10.75.78,22.16-1.75,32.05-1.45,36,1.08,78,13.44,116.55,18.94,18.06,2.58,35.17-.2,49.54,8.74-85.29,1.25-166.11,6.53-247.67,1.46-1.15,14,14.07,10.7,23.3,11.65,55.69,5.77,116.67-.95,173.37,1.46,18.74.79,38.19-1.08,53.91,5.82-65.89,4.79-131.73,19-196.68,20.4-22.11.47-52.9-10.56-61.19,7.28,70.57,8.24,151.72-4.05,225.82-2.91-59,14.25-129.64,26.41-193.77,32.06-7.63.66-21.42-5.21-24.77,7.28,9.93,12.84,26.05,3.11,37.88,1.45,38.21-5.34,80.62-11.37,122.38-14.56,34.94-2.68,69.88-13.44,102-8.75-34.44,13.26-72.9,14-110.73,23.31-6.89,1.69-13.5,7-20.4,8.75a752,752,0,0,1-75.75,14.56C96,714.55,75.19,709.58,63.11,724c16.54,10.9,40.07-1.2,61.19-4.37C189,709.89,259.54,693.74,318.07,689c-16.92,11.37-39,13.61-59.73,20.39-20,6.53-38.74,17.11-58.28,23.31-27.83,8.83-57.23,14.62-83,20.41-15.36,3.44-41.56,3.06-42.25,23.31,19.67,3.8,37.74-11.64,58.27-14.58,15.83-2.26,21.93-6.18,33.51-8.73,33.18-7.33,57.83-16.25,87.41-24.77,24.47-7.05,46.64-20,69.94-21.86-7,7.52-16,13.18-30.6,13.11-2.7,2.16-2.18,7.53-7.28,7.28-28.54,10.37-57,24.86-86,36.43-16.13,6.44-33.81,13.21-51,16C129.41,790.25,97.65,789.09,85,807c10.59,12,22.59-1.12,32.06-4.36,68.22-23.39,144.78-53.08,214.17-72.85-46.32,26.83-96.48,51-148.61,72.85-27.57,11.58-57.45,18.64-84.5,32-1,4.45,1.49,5.31,1.46,8.74,20.83,2,40-14,53.9-20.39,9.49-4.39,19.88-5.89,30.6-10.2,33.57-13.5,66.47-28.9,97.61-42.25,24.53-10.52,46.91-20.92,68.48-26.23C330.4,761,305,773.54,280.19,785.14c-50.14,23.48-99.41,51.46-151.51,71.39-7.87,3-19.81,1.1-21.86,13.11,11,11,28.47,2.42,39.34-2.92,14.25-7,27.35-22.16,45.17-21.85C240.13,814,298,792.2,354.5,769.11c-13.42,14.74-34.27,18.06-51,27.69-8.2,4.72-14.95,11.84-23.31,16-47,23.54-100.85,46.13-145.69,68.48-4.88,2.43-15-.57-14.56,8.74,13.51,10.26,31.44-1,43.7-7.28,28.44-14.54,55.21-27.36,86-39.34,24.54-9.56,45.6-24.95,68.47-35,13.9-6.08,27.54-13.62,39.34-16-31.64,19.84-61.12,41.83-94.7,59.73-27,26.45-68.92,39.17-102,58.28-5.26,3-12.85,8.46-13.11,16,13.76,7.23,26.26-9.78,37.88-16,13.77-7.4,28.2-14.93,40.79-21.86,51.09-28.11,105.57-57.52,154.43-86-39,38-84.37,68-126.76,100.53-20.36,15.59-42.61,30.1-64.1,43.7-5,3.18-13.17,2.77-14.57,11.66,17.36,12,35.5-9.74,48.08-18.94,15.8-11.56,33.31-20.32,49.53-30.6,6.52-4.12,11.27-11.7,17.49-16,26.8-18.63,54.88-36.38,78.67-53.91-12.42,23.51-35.46,39-53.91,58.28-6.68,7-10.72,16.41-17.48,23.31-11.59,11.82-25.43,22.27-37.88,33.5-11.16,10.09-31.16,18.53-32.05,36.42,16.27-3.19,29.15-18.4,40.79-30.58,12.49-13.08,25.45-26,37.88-37.88,33.36-21,56.53-60,87.41-78.68-23.76,34-54.55,61-75.76,97.62-23.09,13.26-35.32,41.78-53.9,59.73-8.17,7.89-25.74,12.93-18.94,29.14,16.62-.38,16.52-17.47,29.14-21.85,35-48.08,79.43-93.89,118-136.95,6.57-7.33,9.41-22.09,21.85-21.85-15,26.28-38.09,44.46-48.08,75.75A339.57,339.57,0,0,0,312.24,995c-11,6.51-17.71,17.26-23.31,29.13-5.68,2.5-14.18,8.59-11.66,14.58,19.81-3.92,30.77-24.52,42.25-39.34,25.46-32.87,49.82-66.09,74.3-97.61,12.28-15.81,20.88-36,37.88-45.17-33.36,58.92-71.19,113.37-104.9,171.92-9.22,10.21-22.21,16.63-24.76,33.51,22.12-3.28,28.83-34.19,45.16-48.08-.22-14,10.36-17.37,16-24.77,9.29-12.14,17-28.45,26.23-42.25,9.73-14.59,19.77-28.48,29.14-40.79,4.41-5.8,7.85-16.93,17.48-16-4.2,8.43-10.54,14.71-11.66,26.22-14.9,11.69-21.53,30.78-32.05,49.53-7.87,14.05-18.83,27-24.76,39.34-2.16,4.49-2.2,10.24-4.38,14.57-9.6,19.07-35,32-32.05,56.82,16.52-9.71,20.93-31.52,36.42-42.25,29-59.93,68.58-116.94,104.9-164.63-17,47.6-41.87,87.31-59.73,134C403,1015.06,396.2,1029.82,388,1043c-8.32,13.38-20.56,25.71-21.85,40.79,25.07-20.82,40.26-51.2,55.36-81.59,6.79-13.66,17.78-25.58,24.77-39.33,5.77-11.35,9.67-23.45,16-35,6.09-11,14.61-21.17,20.4-32,5-9.41,5-24.59,18.47-27.56C395,831.39,323.7,730,323.57,615.92c.07-131,93.57-242.64,220.75-263.53-9.25-27.16-6.24-53.29-9.17-80.06C533,252.94,526,235.69,523.5,219.88c-2.74-17.63-3.92-38-7.29-58.27-3.79-22.85-7.32-46.43-8.74-65.56-1.25-16.89,9-24,0-35Zm160.24,4.4c-.35,2.08-2.4,2.45-2.92,4.37-13.09,85-31.8,172.14-42.25,255-1.24,8.59-8.34,17-11,25.32q7,.84,14,2.07c2.88-7.74,2.64-18.21,1.31-25.93C640.62,292,642.24,250.2,648.8,209.7c1.13-7,4.54-14.49,5.82-21.85,2.13-12.2,1-26,4.37-36.42,1.11-3.41,4.9-6.59,5.83-10.2,1.74-6.76.68-15.11,2.91-23.31,4.48-16.5,15.52-33.8,4.37-52.44Zm59,16a3.69,3.69,0,0,0-.78.06h0c-.36,2.08-2.4,2.45-2.92,4.36-8.39,33.15-24,66.22-30.59,102-5.4,29.4-16.93,60.3-26.23,88.88C659.21,298.4,653,322.13,643,339.37c-2.81,4.83-9.46,8.19-11.35,13.74a259.83,259.83,0,0,1,40,10.53c25.58-67.26,54.07-134.48,79.17-199.1,9.53-24.53,31-41.46,29.14-71.39C764,91.89,761.28,111,758.06,120.83c-25.41,77.74-67.58,158.12-102,220,14.11-48.33,25-96,39.33-142.77,12-39.1,28.55-72.52,35-115.09-1.63-.07-2-1.45-3.59-1.52Zm86.61,29.2c0,1.92-2.55,1.33-2.92,2.91-6.78,9.65-10,22.91-16,33.51-29.23,51.52-56.84,105.47-83,157.34-10.24,20.28-22.24,40.78-28,63.62a263.58,263.58,0,0,1,123.26,102.8c2.75,1.83,5.52,3.66,8.2,5.5,23.6-21.56,58.35-32,84.51-51,27.42-9.95,54.61-25.95,77.21-37.88,17.16-9.06,35.78-18.39,53.91-26.23,17.39-7.51,43.23-11.79,51-29.13-13.77-3.38-23.16,9.42-33.51,14.56-11.47,5.7-23.37,10.78-35,16-57.86,26.22-114.47,57.94-171.91,83-11.18,4.89-23.7,12.11-36.42,11.66,34.42-32.6,77.85-56.19,120.92-80.13h11.65c5.2-4,6.94-11.52,11.66-16,3.87,0,8.32.55,10.2-1.46,9.52-9.9,19.58-19.26,36.42-21.85,13.72-19.33,52.89-20.88,61.19-40.79-11.83-11.1-21.37,12-37.88,10.2-7.48,12.36-22.12,13-33.51,18.94-31.14,16.2-57,42.09-90.33,55.36-13.47,10.64-31,17.46-46.62,26.22-15.8,8.9-30.75,19.58-46.61,23.31,1.93-8.27,12-8.34,18.93-11.65C861.15,375,919.6,348.43,962,305.86c22.65-16.72,61.24-25.16,68.48-52.44-16.9-.48-25.22,13.27-36.42,21.85-26.17,20-53.34,39.29-80.13,58.27-27.07,19.19-55.85,35.85-83,55.36-11.3,8.11-20.58,21.32-36.42,23.31,28.5-36.92,64.14-67.08,97.61-99.06,16.23-15.51,33-32.91,51-46.63,18.14-13.84,42.77-23.82,52.45-46.62-16.76.26-26.53,14.93-37.88,24.77-19.22,16.66-41.89,29.91-61.19,48.08s-39.54,34.81-55.36,55.36c-29,14.7-44.8,50.36-74.3,59.73,58.85-78.58,122.54-152.32,196.68-215.61-3.19-9.21,7-10.5,2.92-16-9.3-.56-9.94,7.55-17.49,8.74-22.28,36.48-60.27,57.26-83,93.25-41.91,36.27-75,81.32-116.55,118,35.23-59,82-106.44,118-164.63,14.72-6.71,19.5-20.86,29.14-32.05,11.81-13.7,30.52-26.94,30.6-46.62-12,2.1-18.88,14.4-24.77,23.31-19.53,29.52-42.49,55.14-64.1,81.59-30,35.12-55.73,74.42-88.88,106.35C783.67,302,826.44,244,864.42,186.4c4-6.07,10.77-10,14.57-16,2.67-4.28,3.22-10.33,5.83-14.56,3.17-5.15,13.82-9.19,8.74-17.49-7.94.16-11.56,5.9-14.57,10.2-10.54,15.06-17.26,31.35-29.14,46.62-33.93,43.63-56.46,95.67-97.61,131.12-8.15,15.65-19.75,35.61-33.51,40.79,19.52-38,44.28-73.31,65.57-110.72s41.68-76,69.93-107.81c-.84-9.92,9-15.82,5.83-23.31-20.72,9-25.17,32.46-36.43,49.53-18.32,27.79-37.68,57.06-55.36,87.41-18.18,31.23-39.72,63.79-58.28,90.33-4.39,5.57,2.13,13-5.82,14.57-15.25-5.54-1.61-21.35,1.45-27.68,25-51.63,50.06-100.52,75.77-150.06,13.26-25.57,36.06-47.87,36.42-77.21h0a6.82,6.82,0,0,1-4.36-1.46Zm282.86,258.84a6.28,6.28,0,0,0-3.12.48c-28.49,12-62.5,29.1-91.78,40.79-62.09,24.8-128.27,47.07-188.42,71a270.68,270.68,0,0,1,35.91,134.15c-.08,1.88-.17,3.76-.28,5.63a21.54,21.54,0,0,0,5.65,3.38c12.21,4.68,26.41,2,42.25,4.37,24.26,3.57,52.1,8.57,80.12,13.1,24.87,4,53.05,8.33,75.76,14.58,4.74,1.3,9.73,4.85,14.57,5.82,7.41,1.5,14.62,0,21.85,1.46,19.23,4,43.16,21.12,61.19,8.74-3.18-10.46-16.74-10.43-24.76-11.65-38.73-5.93-68.12-14.09-104.9-19-48.62-6.42-97.58-25.83-139.87-29.13-9.84-.77-15.9,4.27-21.85-2.91,8.95-10,21-1.2,30.6,0,46,5.72,96.09,10.22,136.94,16,15.22,2.16,30.81,6.52,43.71,7.28,5,.29,9.71-2,14.57-1.45,22.85,2.76,44.5,14.74,65.56,10.19,1-21-19-14.51-35-16-79.4-7.46-174.27-27.25-257.88-37.88,77.86-8.45,169.32-8.93,255,0,7.38,4.76,16.94,7.35,26.23,10.2,6.25-3.46,8.44-11,8.73-20.39-88-7.24-196.21-6.28-284.09-10.2,24.66-9.07,52.42-7.47,80.12-10.2,63.89-6.32,130.41-21.36,189.4-11.66,3.74-15-15.09-11.57-23.31-13.11-36.37-6.8-74.55,4.08-115.1,7.28-47.79,3.78-98.53,9.79-138.41,8.75,6.37-11.14,20.67-6.93,32.06-8.75,66.78-10.63,136.16-33,214.16-33.5,6-7.63,25.37-1.83,24.77-16-12.21-11.58-20.49,6.5-30.59,8.74-4.46,1-11.7-1.6-16-1.45-18.6.62-37.91,8.72-58.27,11.65-50.81,7.32-107.36,10.39-154.43,18.94-8.44,1.53-16.3,9-24.77,1.46,7.26-8.18,18.19-6,27.68-8.75,45.7-13.08,95.74-31.15,144.24-40.79,13.62-2.71,27.82-3.4,40.79-7.28,6.47-1.94,11.16-6.15,17.48-7.28,15.75-2.82,33-.1,43.71-13.11-5.43-15.69-20.43-1.63-29.14,1.45-46.93,16.57-99.36,21.91-151.52,35-35.18,8.8-69.83,27.46-100.53,23.31,83.52-30.6,169.14-59.12,253.5-88.88,11,3.9,24.16-1.85,26.23-11.65-9.56-9.13-20.49,2.34-29.14,5.83-10.38,4.19-23.55,9.19-33.51,11.66-5.52,1.37-12-.1-17.48,1.45-16,4.51-31.46,12.56-48.08,17.48-17.28,5.11-35,9.69-52.45,14.57-34.24,9.6-65.84,31.69-100.52,27.68,28.43-16.17,60.73-28,93.25-40.79,20.46-8.06,42-14,62.64-21.85,27.06-10.24,50.83-27.12,80.13-35,11.74-3.14,31.16-2.63,35-18.94-2.54-2.2-5.46-4.56-8.53-4.85ZM848.19,629.13a269.76,269.76,0,0,1-55.08,150.79c27.43,10.08,54,35.23,77.14,53.32,12.82,10,28,16.18,32,30.59,20.51,5.24,35.3,16.18,43.7,33.51,13.53-2.84,12.65,8.73,18.94,13.11,24.4,4.38,34,30.89,53.91,35-4-13-16.41-17.59-26.23-24.77-15.89-22.08-40.32-32.49-61.19-49.53-7.16-5.85-12.58-13.15-20.39-18.94-21.21-15.75-39.87-30.57-59.73-46.62-18.33-14.8-39.52-23.75-43.71-40.79,36.34,14.16,64.37,36.65,93.24,58.28,50.55,28.61,93.16,65.16,138.41,99.07-2.36-25.48-29.76-35.49-48.08-48.08-19.11-13.14-37.66-29.95-56.82-43.71S894.23,805,874.62,791c-9.18-6.57-19.19-13.39-29.14-20.4-9-6.33-26.18-9.64-26.23-24.77C872.7,765.23,910,800.74,962,821.59c26.74,20.37,54.87,39.34,86,55.37,4.9,4.8,6.83,12.58,16,13.1-2.25-20.5-25.11-27.12-39.34-36.42-19.82-12.94-43.46-23.7-55.36-39.33-32.41-14.2-54.53-38.72-88.87-51-13.8-15.34-39.94-18.33-51-36.42,22.74.57,32.43,14.19,51,18.94,37.75,22.75,83.48,43,122.38,65.56,9.23,5.36,18.4,12.3,27.68,17.49,8.74,4.89,19.56,6.22,27.68,11.65,7.59,5.08,13.78,22.62,26.23,11.66-.51-13.12-15.44-14.09-23.32-18.94-4.94-3-8.18-8.85-13.1-11.66-30.27-17.27-63.3-31.64-94.71-49.53-37.16-21.17-81.51-42.35-115.09-64.1,30.9.78,54,16.83,78.67,26.22,56.28,21.39,113.45,43.3,163.17,71.39,6.42,3.62,10.59,10.91,18.94,10.2,3.56-17.06-14.21-24.35-29.13-27.68-67.69-39.63-151.38-63.27-221.45-100.52,21.39-5.26,32.15,12.45,53.91,11.65,14.56,11.38,36.36,14.25,55.35,21.85C998.79,737.53,1040,752.8,1080,769.15c10.2,5,20,17.73,33.51,14.57.36-9.74-10.07-16.76-17.48-20.4-34.17-16.74-74.64-26.27-112.18-39.33-18.26-6.35-34.9-17.8-52.45-24.77-27.74-11-56.75-18.1-80.13-33.51,94.74,18.43,191.56,55.13,276.81,83,2.88-18.88-19.21-17.3-30.59-21.85-9.21-3.68-17-11.06-24.77-13.11-8.81-2.33-18.68-2.2-27.68-4.37-65.94-15.89-131.15-40.17-187.94-61.19,13.53-6.13,25.31,4.8,37.88,5.83,62,5.09,110.51,18.63,166.09,30.6,14.53,3.13,28.41,6.69,42.25,10.19,14,3.55,27.1,8.68,40.79,10.2,2.93-17.18-17.27-14.49-24.77-16-10.9-2.23-24.67-4.66-33.51-7.29a1301.83,1301.83,0,0,0-144.23-33.51c-29.33-5-63.9-11.26-88.87-17.48a27.28,27.28,0,0,1-4.56-1.62ZM303.44,642a31,31,0,0,1,5.89.44c-4.74,4.79-17.81,8-26.22,4.37,3.84-3.3,13.31-4.78,20.33-4.81ZM792.13,781.22C742.41,845.39,666.55,882.89,586.22,883a258.76,258.76,0,0,1-84.65-14.54c-23.46,68.26-49.35,138.3-82.95,195-4.09,6.9-10.44,11.88-14.57,18.94-4.31,7.38-11.21,20.74-8.74,29.14,10.4-1.28,15.76-15,21.86-24.77,6.56-10.55,10.95-23,18.93-30.59-1.12-5.5,1.78-7,1.46-11.66,7.71-6.37,8.95-19.21,16-26.22,11-40.29,31.57-79,49.53-110.72,5.69-10,7.53-26.84,20.4-27.69-21.66,74-52.36,139-78.68,208.34-5.29,5.88-10.92,11.41-10.19,23.31,10.34-2.24,8.15-13.29,11.65-20.4,5.36-10.88,15-19.84,20.39-30.59,2.16-4.31,2.08-10.15,4.38-14.57,2.08-4,6.53-6.08,8.74-10.2,22.59-42.15,29.89-93.42,56.82-132.58-3.18,28.39-5,58.13-18.94,75.76-1.15,6,2.23,7.48,1.45,13.12-1.22,5.57-3.86,9.72-5.83,14.56-1.92,28.88-9.73,48.84-17.48,71.39-6.33,18.44-17.82,39.9-11.65,56.82C498,1121.65,500.14,1098,506,1078c2.36-8,6.79-15.47,8.74-23.31,1.48-5.93-.3-11.85,1.46-17.49,1.93-6.18,7.24-11.19,8.74-17.48,9.36-39.17,12.82-79.54,30.59-112.18-1.81,49.85-4.38,90.7-11.65,144.24-1.83,13.43-6.7,27.73-8.74,40.79-3.33,21.35-8.09,42.72,2.91,51-.25-38.54,19.12-73.34,23.31-113.63,1.64-15.72-2.1-32.68,0-49.54.61-4.91,3.66-9.31,4.38-14.57,3.85-28.37-.81-63.15,17.48-81.58,5.38,80.27-6.28,188.34,0,257.87,6.18-15.63,5-38.55,5.83-58.28,2.75-62.73,1.42-133.57,7.28-190.85,5.73,30.32,17.14,74.57,8.74,104.9,14.42,23.13,7.2,61.58,8.74,94.7.29,6,2.77,11.72,2.91,17.48.24,9.45-7.49,25.6,4.38,30.59,8.72-61.85-4.76-140.23-5.83-206.88-.28-17.14-1.21-35.24,5.83-49.53,7.8,63.44,17.87,149.11,20.39,224.36.33,9.86-7,27.24,7.29,30.6,2-81.63-23.51-171.08-8.75-256.41,12,31.77,14.74,76.54,20.4,109.26.39,2.26-1.66,6.45-1.46,8.74.8,8.75,6,18,7.29,27.69,1.38,10.48-.09,22.07,1.45,32,2.89,18.64,8.4,36.4,10.2,52.45.94,8.32-5.67,18.32,5.83,23.31-.09-75.24-26.56-152.07-23.31-225.82,14.63,11.41,12.47,33.54,17.48,51,1.78,6.18,5.75,11.41,7.28,17.48,3.79,15.05,3.71,31.51,7.29,46.63,4.32,18.22,13.65,35.73,14.57,53.9.46,9.19,1.78,13,2.91,20.4,1.7,11.09-3.74,26.65,11.66,30.6,5.41-7.17-1.19-13.2-2.92-20.4-7.7-32-9.33-73.5-21.85-99.08-5.29-39.66-24.89-89-20.4-134,24.45,39.17,32.39,94.85,51,139.86,3.77,33.41,8.52,77.73,24.77,103.44,6.67-21.67-7-45-5.82-65.56-10.34-8.13-8.38-28.53-17.49-37.88,1.68-1.72,1.64-5.15,1.46-8.74-11.13-15-8.85-36.28-14.58-56.82-4-14.32-10.2-29.33-14.56-43.71-4.17-13.75-14.36-30.07-5.83-40.79-.58,14.41,15.89,22.43,16,40.79,27.06,54.92,58.47,115.29,78.67,173.38,2.38,6.85,1.29,20,11.65,21.85,5.68-10.22-2.72-21.54-5.83-30.6-14.16-41.3-30.94-81.47-48.07-115.09C735,931.8,721.36,905.38,710,879.85c-3.24-7.26-7.34-16.12-4.37-24.76,15.86,8,20,29.74,29.14,45.16,11.74,19.79,24.84,40.18,35,59.74,6.23,12,11.43,24.38,21.85,32-1.46-20.46-21.53-34.76-23.31-59.73-10.23-12.47-17.47-28-26.22-42.26-8.29-13.53-21.21-27.92-20.4-45.16,13.26,2.07,12.4,16.06,17.48,24.76,11.7,20,28.94,38.76,42.25,59.74,11.91,18.79,23.25,37.58,35,52.45,10,12.7,18.78,27.43,27.69,40.79,9,13.54,13.69,31,27.68,40.79-5-32.73-30.38-54.71-43.71-77.21-17.66-29.81-33.24-57.28-51-86-13.39-15.75-32.57-33.46-35-55.36,15.59.08,18.23,17,24.76,26.23,4.93,7,12.32,12.06,17.49,18.93,10.24,13.63,18.51,28.33,30.59,39.34,12.76,20.91,26,42,40.79,61.19s26.8,41,45.17,56.82c-9.91-30.32-33-53.13-49.53-78.67-28.89-44.67-60.45-85-88.88-126.75,9.78.74,12,10.34,17.49,16,22.86,23.61,50.9,42.55,68.48,71.39,4.86,1,7.12,4.53,11.65,5.83,14.55,19.44,29.88,38.11,48.08,53.9,7.86,13.5,17.05,25.7,29.13,35-.77-23.56-29.95-31.18-35-55.36-35-34-69-72.28-102-107.81-6.7-7.22-15.47-15.2-21.85-23.31-5.7-7.24-16.28-17.41-11.66-27.68C816.7,845,850.31,896.4,897.93,933.76c.08,5.26,3.63,7.06,4.37,11.66,25,15.36,42.59,38,64.11,56.82C970,990,955.66,984.06,948.92,976c-11.78-14.07-22-28-36.42-37.87-30.72-41.16-70.7-73-104.9-110.73-8.18-10.38-26.28-18.25-26.22-32,17.64,9.56,31.72,22.66,43.7,37.88,41.81,27.63,77.22,61.67,110.72,97.61,3.78,1.56,9.76.92,11.66,4.37,2.13,3.21,4.42,6.25,4.37,11.65a139.43,139.43,0,0,1,18.93,18.94c11.17.17,10.76,17.5,21.86,13.11-6.32-22.34-27.41-34.69-42.25-49.53-19.2-19.19-41.89-36.68-56.82-56.82-21.86-16.55-41.11-35.41-62.65-52.44-14.5-11.46-33.38-21.25-38.77-38.9Zm3.8,218.12c-2.67,6.55,5.22,13.84,4.37,23.31,17.25,16.74,20.92,47.08,36.43,65.56,6.14-28.12-19.38-47.84-27.68-68.47-4.1-10.18-3-18.31-13.12-20.4Z"/><path class="cls-3" d="M586.21,348.82a260.37,260.37,0,0,0-39.62,3.27q-.55,1.68-1.23,3.27c-.37-1-.69-2-1-3C417.16,373.26,323.67,484.89,323.6,615.91c.13,114.07,71.47,215.47,177.59,252.4.16,0,.3-.09.47-.12l-.1.27A259.07,259.07,0,0,0,586.21,883c80.33-.11,156.19-37.6,205.92-101.78-.2-.62-.42-1.24-.57-1.89.51.18,1,.4,1.54.58a269.74,269.74,0,0,0,55.08-150.79c-11-4.94-21.37-16.79-33.31-21.69-13.26-5.45-28-14.78-43.71-8.74,1.06,6.22,10.55,4,17.49,4.37,13.48,12.74,41.64,18.57,45.16,36.42-12.52-8.45-32.19-17.23-53.91-11.66,2.7,9.09,14,6.18,20.4,8.75,14.56,5.86,29,16.14,35,29.13-15.89-4.48-38.46-22.39-56.82-10.19,18,9.68,53.16,10,53.91,32.06-14.6-5.88-39-17.27-58.29-8.75,18.84,8.42,49.38,12.72,46.63,37.88-15.71-4.77-30.82-25.43-51-16,12.36,8.25,46.89,15.3,33.51,35-13.41-2.26-18.66-20-35-14.57,3.63,14.44,30.25,13.32,24.76,32.06-15.6.4-22.07-15.62-35-13.13,4.68,11.83,24.2,16.6,21.85,30.6-17.06-3-31.69-29.64-49.53-17.47,11.27,9,49.68,21.8,29.14,39.33-10.45-10.51-21.22-28.21-39.34-26.22,9.47,12.86,24.53,20.14,33.51,33.5-23,14.93-42.9,32.85-65.56,48.08-6.12.28-4.51-7.15-11.67-5.83-12.63,12.14-34.17,39.24-55.35,20.4-9.05.17-12.64,5.81-23.3,4.37-.58-5.46,6-8.15,1.45-13.11-14.72,2.85-35.5,12-55.36,14.56-5.37-.46-3.43-8.22-5.83-11.65-14.74-7.6-43.79-.89-52.45-14.57,2.6-4.2,11.74-1.86,10.2-10.2-25.56.79-44.36-5.18-55.36-18.94,4.47-3.3,15.33-.2,16-7.28-12.24-3.3-26.8-4.28-35-11.65,1.28-5,11.33-1.3,10.19-8.74-14.17-7.75-38-13.39-43.71-24.77,6.72,2.36,22.44,2.36,29.15,0C402.4,747.9,371.73,743.72,369.05,724c9.48,4.4,33.46,13.36,43.71,2.91-14.56-10.19-38.95-10.59-45.15-29.14,18.78-.78,25.68,1.37,35-5.82-10.27-6-18.54-5.2-24.77-16-10.85,5.29-19.95-1.68-23.31-11.66,10,2.39,32.8,12.11,39.33,0-16.11-8.65-44.87-12.42-49.53-27.68,16,1.19,31.67,12.09,42.25,0-8.54-9.43-37.35-6.34-37.87-18.93,10.79.76,30.32,13.12,39.32,1.45-2.08-8.89-12.4-5.18-18.94-7.28-15.22-4.91-29.27-16.47-30.59-29.14,10.57,7.39,34.2,23.42,49.53,11.65-13.37-8-45.33-17.72-46.61-37.87,14.22,6.46,39.88,28.31,55.36,14.56-2.35-10.27-14.52-5.75-21.86-8.73-12.95-5.29-24.43-19-26.21-29.14,14.87,7.87,41.94,22,55.36,2.91-17.3-7-49.95-6.31-46.63-29.13,12,3.39,31.51,19.08,42.25,5.81-8-11.39-30.93-7.9-32-26.22,13.09,4.48,30.06,18.7,48.07,8.75-8.52-11.89-30.34-10.46-36.42-24.77,13.15-3.61,28.88,3.87,39.33-2.92-2.25-10.86-23.14-3.07-27.67-11.65,9.26-16.08,24.62-31.11,42.25-45.16,5.65-4.51,14.27-6.26,21.84-10.21,9.16-4.77,17.89-12,29.14-16,18.31-6.58,46.7-16.72,58.29-17.49,4.06-.27,7.73,2.09,11.64,1.46,8.65-1.4,16.12-6.76,24.77-7.28,6.12-.39,11.48,1.81,16.51,1l16.95.35a.75.75,0,0,0,.06.13,15.91,15.91,0,0,0,2.13-.19l27.6,1a73.8,73.8,0,0,0,25.37,6.38l16.26,3.46v0c15.29,4.4,29.6,4.83,33.5,18.52-19.62.67-52.36-5.55-67,7.28C669,406.27,695,399,710,403.48c25.32,7.6,53.85,24.33,67,36.42-11.31-3.17-26-8.27-40.78-10.2-15.58-2-35.75-2.14-48.08,4.37,50.67-3.4,87.2,15.86,118.55,36.75A263.58,263.58,0,0,0,683.39,368l0,.14-11.81-4.41a.49.49,0,0,1,0-.11,259.57,259.57,0,0,0-40-10.54.17.17,0,0,0,0,.07l-6-.92s0,0,0-.06c-3.31-.58-6.64-1.07-10-1.53-2.41-.45-5.29-.94-7.23-1.08a37.56,37.56,0,0,0-4.7.12q-8.73-.72-17.51-.88Zm54.89,88.09L640,437c-19.13,9.23-48.52,22.8-75.75,21.86-8-.28-19.24-10.34-24.77,0,4.3,6.64,15.18,7.9,23.32,8.73,32.26,3.32,74.59-5.67,87.41-24.76-2.28-2.39-3.83-5.52-8.17-5.86A7.68,7.68,0,0,0,641.1,436.91Zm101.52,23.35a44.31,44.31,0,0,0-19.54,4.4c33.88,10.8,77,12.35,91.79,42.24-21.28-9.11-50.87-12.73-75.77-10.19-5.85.6-14.52-4.6-17.47,2.91,41.29-3.19,92.49,9.56,107.81,36.43-29.14-5.7-59.65-24.58-91.79-10.2-23.53-3.76-44.13-12-68.47-7.29-11.67,2.28-18.29,16-27.68,17.49-14.94,2.34-21.56-10.63-33.51-4.37-3.39,9.94,10.44,10.89,11.65,21.85.47,4.25-3.39,9.33-4.37,14.56-5.73,30.8.16,60.81,7.29,84.5-7,13.42,10.15,42.13-8.75,43.71-15,1.26-11.28-24-17.48-36.42-35.87-9.26-46.84,29.25-62.64,49.52,13.14.05,15.24-11,24.76-14.56,5.2,4,3.33,15.13,11.66,16,17.84,2.75,33.48,8,46.63,11.66-5.79,9.63-17.4.28-26.24,0-1.45,7.07,2.5,13.92,0,17.47-23,3.48-36.14-10.34-55.36-5.83-1.09,10.81,8.73,10.71,8.75,20.41-5.8,8-13.62,35.91-1.45,43.7,3.07,3.21,4.3-1.87,8.73-1.45,2.55-10.23-11-23.47,2.91-30.6,7.72.53,1.36,15.16,11.66,13.11,5.79-6-1.62-16.85,2.92-24.76,33.05,10.26,63.68,7.85,93.23-4.37,4.39.95,5.09,5.6,11.66,4.37,6.49-8.94,16-21.36,14.57-33.51-14.4,2.6-19.92,14.06-36.43,14.57-4.42-1.4-3.17-8.49-5.82-11.66-12.38,6.07-20.62,24-40.79,17.49,16.8-1.39,29.29-9.07,24.77-27.69,7.44-9.55,30.6-3.38,37.87-13.11-.11-9.61.69-20.1-1.45-27.67-21.63-8.35-27.06-34.78-29.14-64.11-.78-11,3.64-22.7,2.91-32-.51-6.57-5.17-11.38-4.36-16,3.47-20.16,54.73-32.4,78.66-30.6,15.92,1.21,19.46,19.17,36.42,18.94,4.86-7.64-9.45-11.32-4.36-18.94,41.35-4.7,79.43,9,91.79,35-25-4.64-51.16-29.71-80.13-16,34.79,7,72.24,19.05,83,45.17-17.88-7.37-31.54-19-56.81-18.94,9.2,13.78,27.64,13.09,43.7,24.77,6.75,4.91,13.12,15.45,20.57,21.38.12-1.87.22-3.75.28-5.62a270.47,270.47,0,0,0-35.91-134.15l-1,.37c-19.5-6.47-45.34-22-69.33-21.87Zm-90.08,16.46c-12,.08-24.64,1.9-35.8,4-17,3.13-32.73,15.38-52.46,14.57-22.4-.91-36.78-10.78-58.27-14.57-1.31,13.16,17,22.17,27.68,24.77,25.83,6.3,49.25-1.83,71.39-5.83,32.51-5.88,59.66-10.42,91.78-1.46-6.25-16.76-24.35-21.55-44.32-21.44ZM484.15,505.45v4.37c42.55,32.64,126.36,21.94,171.92-2.92-13.67-3.75-27.69,1.65-43.71,0C576.9,527.2,517.76,511.51,484.15,505.45Zm2.48,33.06c-16.35-.28-30.9,6.33-37.45,25.21,14.45,2.88,14.31-6,23.32-8.74,12.19-3.74,38.86-1.42,49.53,4.37,12.22,6.63,16.7,21.44,27.69,21.86,10.33.39,21.16-9.26,16-21.86-7.26-4.64-11.69,4.35-20.4,2.91C531.61,550.59,507.63,538.86,486.63,538.51Zm212.28,5.27h-2.16c-17.23.36-33.23,8.23-46.51,15.57,1.59,7.32,6.92,7.15,8.75,13.11,2.88,9.45-3.5,18.78-2.92,27.69,1,15.5,22.26,40.68,32,48.07,16.47,12.48,56.8-4,67-23.31,4.5-8.5,4.45-20.38,7.29-30.59-16-10.41-26.38-41.31-48.07-48.08a55.16,55.16,0,0,0-15.44-2.46ZM703.37,557c.71,0,1.43,0,2.13,0,8.82.22,16.67,3.06,17.58,9.64-13.41-5.93-25.6-2-43.7,0C681.12,561.1,692.6,557.21,703.37,557ZM489.18,568.4a158.46,158.46,0,0,0-24,2.61,281.58,281.58,0,0,1-29.15,32c-13.77-2.37-33-9.54-36.42,7.28,4.87,7.71,25-5.76,24.77,8.75-4.11,2.69-13.63-.05-17.49,2.91-4.19,5.63,7.45,5.48,8.75,10.2-1.67,4.44-7.67,4.56-4.37,10.19,13.85,6.41,27.92,2.89,40.8-1.45C468,656.67,504,697.5,533.69,671.53c-10-7.93-33.35-2.58-37.88-16,14.54-8.77,25.74-20.87,32.05-37.87,6.6,1.17,9.73,5.79,17.48,5.81,17.31-24.46-24.18-51-40.79-53.9A82.2,82.2,0,0,0,489.18,568.4Zm224.19,8c8,.21,16.69,4.17,19.91,10.6,3,36.31-51.47,32.68-55.35,4.36,10.09,10.13,51.59,19.26,42.24-10.19-4.13-1.88-8.25,6-16,1.45.31-2.49-2.48-3.77,0-4.37a18.38,18.38,0,0,1,7.65-1.84c.53,0,1.05,0,1.58,0ZM484.58,582.2a15.85,15.85,0,0,1,9.78,3.37c-18.83.13-27.44,10.46-39.35,17.49,5.13-7.92,16.67-19.89,28.14-20.81.48,0,1,0,1.43,0Zm22,14.26a29.51,29.51,0,0,1,6.75.77c7.14,22.82-18.64,52.28-36.43,32,11.72,1.9,23.58-.57,26.22-11.64C501,610,491,610.29,488.53,603.06c3.62-4.34,11-6.6,18-6.6Zm242.09.72c1.64.07,2,1.46,3.58,1.51,2.91,37.16-59.12,55-72.84,20.4,11.3-3.16,17.52,5.3,26.22,5.82,20.51,1.2,30.41-16.33,42.25-27.68a3.72,3.72,0,0,1,.79-.05Zm-6.57,61.2c-.47,0-.93,0-1.39,0-28.34,1.36-38.72,50.53-13.22,62.67,2.25-2.11,1.28-7.46,1.45-11.66,3.4.45,6,2.85,8.74,0,1.67-8.09-7.51-11.08-2.91-17.47,5.53,1.74,9.67,7.66,16,4.36,1.33-13-17.15-13.9-11.66-26.23,7.06,1.7,8.31,9.19,17.49,8.74.67-6.37-8.89-14.13-13.11-20.39-.48,0-1,0-1.41,0ZM586.14,675.9c5,9.62-2,24.1-13.11,17.49C570.26,685.16,576.22,676,586.14,675.9Zm59,7.24a6.2,6.2,0,0,1,.62,0c2.75.23,3.43,2.53,3.07,5.87-3.91-.09-7-3.34-4.37-5.83A5.74,5.74,0,0,1,645.09,683.14Zm-203.32,5c-.5,0-1,0-1.46,0a12.16,12.16,0,0,0-4.24.91c-.07,1.86-1.86,2-1.45,4.37,4.2,10.86,22.88,7.23,26.22,18.94-7.87-.19-26.07-5.66-29.13,2.9,15.86,7,35.2,10.45,40.79,27.69-11.33,1.48-30-9.3-36.43,1.45,5.46,12,32.89,2.1,35,17.49-8.8,3.83-28.17-2.9-26.23,11.66,9.36,6.87,20.93-5.18,36.43-1.46,7.61-12.36,13.44-38.58,7.28-53.9-4.2-10.41-31.25-29.48-46.76-30Zm141.45,75.21c-12.41,30.25,69.06,36.9,61.19,2.91C631.84,765,623.13,779.8,602.16,775,595.75,771.2,592.06,764.67,583.22,763.32Zm125.2,14.52c-.46,0-.91,0-1.37,0,10.64,8.78,16.34,22.51,32.05,26.22C734.34,790.9,722.43,777.84,708.42,777.84ZM695.68,789.3h-1a15.18,15.18,0,0,0-2.16.24C698.6,799,705.11,808,717.26,811.4c2.34-10.59-10.74-21.77-21.58-22.1Zm-25,1.7c-15.41,21.83-50.33,57.92-84.49,33.5,9.26-11.5,28.27-6.5,42.24-7.28,0-7.74-6.75-8.79-10.19-13.11-13.11,0-27.53-1.3-35,4.36-3.62,4.65-3.22,13.3-10.19,14.58-6.8-1.39-11.83-10.92-20.41-5.83,22.51,54.69,125,25.92,123.84-26.22Z"/></svg>